# xmcd CD database file
#
# Track frame offsets:
#	150
#	16870
#	31384
#	47514
#	74716
#	105013
#	123623
#	138080
#	155856
#	175771
#	187940
#
# Disc length: 2714 seconds
#
# Revision: 0
# Processed by: cddbd v1.5.2PL0 Copyright (c) Steve Scherf et al.
# Submitted via: CDex 1.51
#
DISCID=8a0a980b
DTITLE=Big Ed Sullivan - 300 pounds Of Brooklin Love
DYEAR=2006
DGENRE=Blues
TTITLE0=Ridin' In The Night
TTITLE1=Hello Darlin'
TTITLE2=Lbs Of Brooklyn Love
TTITLE3=Hey Jonah
TTITLE4=If UCK
TTITLE5=One Piece At a Time
TTITLE6=the Doctor Is in
TTITLE7=I'm Da Big Dog
TTITLE8=you Got The Voodoo In Me
TTITLE9=Pills
TTITLE10=Nothin' To Lose
EXTD=YEAR: 2006
EXTT0=
EXTT1=
EXTT2=
EXTT3=
EXTT4=
EXTT5=
EXTT6=
EXTT7=
EXTT8=
EXTT9=
EXTT10=
PLAYORDER=
